<svg width="800" height="600" viewBox="0 0 800 600" fill="none" xmlns="http://www.w3.org/2000/svg">
  <!-- Image removed, now handled by CSS background in parent container -->
  
  <!-- Centered UI Placeholder -->
  <g transform="translate(250, 200)">
    <rect width="300" height="200" rx="8" fill="white" filter="url(#shadow)"/>
    
    <!-- UI Header -->
    <rect x="0" y="0" width="300" height="40" rx="8" fill="#F3F4F6"/>
    <rect x="0" y="30" width="300" height="10" fill="#F3F4F6"/> <!-- Square off bottom corners of header -->
    <rect x="20" y="16" width="60" height="8" rx="2" fill="#D1D5DB"/>
    
    <!-- UI Body - Graph/Chart style -->
    <rect x="20" y="60" width="120" height="12" rx="2" fill="#E5E7EB"/>
    
    <!-- Bars -->
    <rect x="20" y="100" width="20" height="60" rx="2" fill="#E5E7EB"/>
    <rect x="50" y="80" width="20" height="80" rx="2" fill="#E5E7EB"/>
    <rect x="80" y="110" width="20" height="50" rx="2" fill="#E5E7EB"/>
    <rect x="110" y="70" width="20" height="90" rx="2" fill="#0A1628"/>
    <rect x="140" y="90" width="20" height="70" rx="2" fill="#E5E7EB"/>
    
    <!-- Side stats -->
    <rect x="190" y="80" width="80" height="10" rx="2" fill="#F3F4F6"/>
    <rect x="190" y="100" width="60" height="8" rx="2" fill="#F3F4F6"/>
    
    <rect x="190" y="130" width="80" height="10" rx="2" fill="#F3F4F6"/>
    <rect x="190" y="150" width="50" height="8" rx="2" fill="#F3F4F6"/>
  </g>
  
  <defs>
    <filter id="shadow" x="-20" y="-20" width="340" height="240" filterUnits="userSpaceOnUse" color-interpolation-filters="sRGB">
      <feFlood flood-opacity="0" result="BackgroundImageFix"/>
      <feColorMatrix in="SourceAlpha" type="matrix" values="0 0 0 0 0 0 0 0 0 0 0 0 0 0 0 0 0 0 127 0" result="hardAlpha"/>
      <feOffset dy="10"/>
      <feGaussianBlur stdDeviation="10"/>
      <feComposite in2="hardAlpha" operator="out"/>
      <feColorMatrix type="matrix" values="0 0 0 0 0 0 0 0 0 0 0 0 0 0 0 0 0 0 0.15 0"/>
      <feBlend mode="normal" in2="BackgroundImageFix" result="effect1_dropShadow"/>
      <feBlend mode="normal" in="SourceGraphic" in2="effect1_dropShadow" result="shape"/>
    </filter>
  </defs>
</svg>
